<svg xmlns="http://www.w3.org/2000/svg" width="2560" height="1280" viewBox="0 0 2560 1280"><rect width="2560" height="1280" fill="#252932"/><g transform="translate(0 0)"><text x="20" y="32" fill="white" font-size="21">0: LEFT support, RIGHT swing</text><ellipse cx="320" cy="145" rx="47" ry="57" fill="#b9a394"/><path d="M230 200 Q320 177 410 200 L420 350 Q320 395 220 350Z" fill="#8b6654"/><path d="M258 204 L319 272 L382 204" stroke="#bb976b" fill="none" stroke-width="9"/><path d="M265 350 L265 412.5 L245 448" fill="none" stroke="#72bfff" stroke-width="30"/><ellipse cx="245" cy="465" rx="33" ry="16" fill="#72bfff"/><path d="M230 475h30 M245 460v30" stroke="white" stroke-width="3"/><path d="M365 350 L365 445.0 L365 553" fill="none" stroke="#e8bd61" stroke-width="30"/><ellipse cx="365" cy="570" rx="33" ry="16" fill="#e8bd61"/><path d="M405 218 L430 273 L450 315.0" fill="none" stroke="#876e54" stroke-width="30"/><path d="M450 315.0 L485 475" stroke="#82d7ab" stroke-width="10"/><circle cx="485" cy="475" r="9" fill="#82d7ab"/><text x="25" y="618" fill="white" font-size="18">CANE PLANTED: same +30px as support sole</text></g><g transform="translate(640 0)"><text x="20" y="32" fill="white" font-size="21">1: LEFT support, RIGHT swing</text><ellipse cx="320" cy="145" rx="47" ry="57" fill="#b9a394"/><path d="M230 200 Q320 177 410 200 L420 350 Q320 395 220 350Z" fill="#8b6654"/><path d="M258 204 L319 272 L382 204" stroke="#bb976b" fill="none" stroke-width="9"/><path d="M265 350 L265 427.5 L245 478" fill="none" stroke="#72bfff" stroke-width="30"/><ellipse cx="245" cy="495" rx="33" ry="16" fill="#72bfff"/><path d="M230 505h30 M245 490v30" stroke="white" stroke-width="3"/><path d="M365 350 L365 417.5 L365 498" fill="none" stroke="#e8bd61" stroke-width="30"/><ellipse cx="365" cy="515" rx="33" ry="16" fill="#e8bd61"/><path d="M405 218 L430 273 L450 326.4" fill="none" stroke="#876e54" stroke-width="30"/><path d="M450 326.4 L485 505" stroke="#82d7ab" stroke-width="10"/><circle cx="485" cy="505" r="9" fill="#82d7ab"/><text x="25" y="618" fill="white" font-size="18">CANE PLANTED: same +30px as support sole</text></g><g transform="translate(1280 0)"><text x="20" y="32" fill="white" font-size="21">2: LEFT support, RIGHT swing</text><ellipse cx="320" cy="145" rx="47" ry="57" fill="#b9a394"/><path d="M230 200 Q320 177 410 200 L420 350 Q320 395 220 350Z" fill="#8b6654"/><path d="M258 204 L319 272 L382 204" stroke="#bb976b" fill="none" stroke-width="9"/><path d="M265 350 L265 442.5 L245 508" fill="none" stroke="#72bfff" stroke-width="30"/><ellipse cx="245" cy="525" rx="33" ry="16" fill="#72bfff"/><path d="M230 535h30 M245 520v30" stroke="white" stroke-width="3"/><path d="M365 350 L365 385.0 L365 433" fill="none" stroke="#e8bd61" stroke-width="30"/><ellipse cx="365" cy="450" rx="33" ry="16" fill="#e8bd61"/><path d="M405 218 L430 273 L450 337.8" fill="none" stroke="#876e54" stroke-width="30"/><path d="M450 337.8 L485 535" stroke="#82d7ab" stroke-width="10"/><circle cx="485" cy="535" r="9" fill="#82d7ab"/><text x="25" y="618" fill="white" font-size="18">CANE PLANTED: same +30px as support sole</text></g><g transform="translate(1920 0)"><text x="20" y="32" fill="white" font-size="21">3: LEFT support, RIGHT swing</text><ellipse cx="320" cy="145" rx="47" ry="57" fill="#b9a394"/><path d="M230 200 Q320 177 410 200 L420 350 Q320 395 220 350Z" fill="#8b6654"/><path d="M258 204 L319 272 L382 204" stroke="#bb976b" fill="none" stroke-width="9"/><path d="M265 350 L265 457.5 L245 538" fill="none" stroke="#72bfff" stroke-width="30"/><ellipse cx="245" cy="555" rx="33" ry="16" fill="#72bfff"/><path d="M230 565h30 M245 550v30" stroke="white" stroke-width="3"/><path d="M365 350 L365 370.0 L365 403" fill="none" stroke="#e8bd61" stroke-width="30"/><ellipse cx="365" cy="420" rx="33" ry="16" fill="#e8bd61"/><path d="M405 218 L430 273 L450 339.7" fill="none" stroke="#876e54" stroke-width="30"/><path d="M450 339.7 L485 540" stroke="#82d7ab" stroke-width="10"/><circle cx="485" cy="540" r="9" fill="#82d7ab"/><text x="25" y="618" fill="white" font-size="18">CANE AIRBORNE: lift, swing forward, lower</text></g><g transform="translate(0 640)"><text x="20" y="32" fill="white" font-size="21">4: RIGHT support, LEFT swing</text><ellipse cx="320" cy="145" rx="47" ry="57" fill="#b9a394"/><path d="M230 200 Q320 177 410 200 L420 350 Q320 395 220 350Z" fill="#8b6654"/><path d="M258 204 L319 272 L382 204" stroke="#bb976b" fill="none" stroke-width="9"/><path d="M265 350 L265 445.0 L245 553" fill="none" stroke="#72bfff" stroke-width="30"/><ellipse cx="245" cy="570" rx="33" ry="16" fill="#72bfff"/><path d="M365 350 L365 412.5 L365 448" fill="none" stroke="#e8bd61" stroke-width="30"/><ellipse cx="365" cy="465" rx="33" ry="16" fill="#e8bd61"/><path d="M350 475h30 M365 460v30" stroke="white" stroke-width="3"/><path d="M405 218 L430 273 L450 328.3" fill="none" stroke="#876e54" stroke-width="30"/><path d="M450 328.3 L485 510" stroke="#82d7ab" stroke-width="10"/><circle cx="485" cy="510" r="9" fill="#82d7ab"/><text x="25" y="618" fill="white" font-size="18">CANE AIRBORNE: lift, swing forward, lower</text></g><g transform="translate(640 640)"><text x="20" y="32" fill="white" font-size="21">5: RIGHT support, LEFT swing</text><ellipse cx="320" cy="145" rx="47" ry="57" fill="#b9a394"/><path d="M230 200 Q320 177 410 200 L420 350 Q320 395 220 350Z" fill="#8b6654"/><path d="M258 204 L319 272 L382 204" stroke="#bb976b" fill="none" stroke-width="9"/><path d="M265 350 L265 417.5 L245 498" fill="none" stroke="#72bfff" stroke-width="30"/><ellipse cx="245" cy="515" rx="33" ry="16" fill="#72bfff"/><path d="M365 350 L365 427.5 L365 478" fill="none" stroke="#e8bd61" stroke-width="30"/><ellipse cx="365" cy="495" rx="33" ry="16" fill="#e8bd61"/><path d="M350 505h30 M365 490v30" stroke="white" stroke-width="3"/><path d="M405 218 L430 273 L450 315.0" fill="none" stroke="#876e54" stroke-width="30"/><path d="M450 315.0 L485 475" stroke="#82d7ab" stroke-width="10"/><circle cx="485" cy="475" r="9" fill="#82d7ab"/><text x="25" y="618" fill="white" font-size="18">CANE AIRBORNE: lift, swing forward, lower</text></g><g transform="translate(1280 640)"><text x="20" y="32" fill="white" font-size="21">6: RIGHT support, LEFT swing</text><ellipse cx="320" cy="145" rx="47" ry="57" fill="#b9a394"/><path d="M230 200 Q320 177 410 200 L420 350 Q320 395 220 350Z" fill="#8b6654"/><path d="M258 204 L319 272 L382 204" stroke="#bb976b" fill="none" stroke-width="9"/><path d="M265 350 L265 385.0 L245 433" fill="none" stroke="#72bfff" stroke-width="30"/><ellipse cx="245" cy="450" rx="33" ry="16" fill="#72bfff"/><path d="M365 350 L365 442.5 L365 508" fill="none" stroke="#e8bd61" stroke-width="30"/><ellipse cx="365" cy="525" rx="33" ry="16" fill="#e8bd61"/><path d="M350 535h30 M365 520v30" stroke="white" stroke-width="3"/><path d="M405 218 L430 273 L450 303.6" fill="none" stroke="#876e54" stroke-width="30"/><path d="M450 303.6 L485 445" stroke="#82d7ab" stroke-width="10"/><circle cx="485" cy="445" r="9" fill="#82d7ab"/><text x="25" y="618" fill="white" font-size="18">CANE AIRBORNE: lift, swing forward, lower</text></g><g transform="translate(1920 640)"><text x="20" y="32" fill="white" font-size="21">7: RIGHT support, LEFT swing</text><ellipse cx="320" cy="145" rx="47" ry="57" fill="#b9a394"/><path d="M230 200 Q320 177 410 200 L420 350 Q320 395 220 350Z" fill="#8b6654"/><path d="M258 204 L319 272 L382 204" stroke="#bb976b" fill="none" stroke-width="9"/><path d="M265 350 L265 370.0 L245 403" fill="none" stroke="#72bfff" stroke-width="30"/><ellipse cx="245" cy="420" rx="33" ry="16" fill="#72bfff"/><path d="M365 350 L365 457.5 L365 538" fill="none" stroke="#e8bd61" stroke-width="30"/><ellipse cx="365" cy="555" rx="33" ry="16" fill="#e8bd61"/><path d="M350 565h30 M365 550v30" stroke="white" stroke-width="3"/><path d="M405 218 L430 273 L450 307.4" fill="none" stroke="#876e54" stroke-width="30"/><path d="M450 307.4 L485 455" stroke="#82d7ab" stroke-width="10"/><circle cx="485" cy="455" r="9" fill="#82d7ab"/><text x="25" y="618" fill="white" font-size="18">CANE AIRBORNE: lift, swing forward, lower</text></g></svg>